<svg xmlns="http://www.w3.org/2000/svg" xmlns:xlink="http://www.w3.org/1999/xlink" width="190" zoomAndPan="magnify" viewBox="0 0 142.5 30.000001" height="40" preserveAspectRatio="xMidYMid meet" version="1.0"><defs><g><g id="id1"/></g></defs><g fill="rgb(95.689392%, 97.24884%, 95.289612%)" fill-opacity="1"><g transform="translate(6.02825, 22.416869)"><g><path d="M 13.921875 0.265625 L 13.515625 0.265625 L 3.234375 -12.609375 L 3.140625 -12.609375 L 3.140625 0 L 2.109375 0 L 2.109375 -15.53125 L 3.84375 -15.53125 L 12.796875 -4.25 L 12.890625 -4.25 L 12.890625 -15.53125 L 13.921875 -15.53125 Z M 13.921875 0.265625 "/></g></g></g><g fill="rgb(95.689392%, 97.24884%, 95.289612%)" fill-opacity="1"><g transform="translate(22.055931, 22.416869)"><g><path d="M 6.6875 -2.484375 L 6.6875 -4.90625 C 5.5625 -4.820312 4.640625 -4.566406 3.921875 -4.140625 C 3.203125 -3.722656 2.84375 -3.269531 2.84375 -2.78125 C 2.84375 -2.300781 2.96875 -1.882812 3.21875 -1.53125 C 3.46875 -1.1875 3.785156 -0.941406 4.171875 -0.796875 C 4.691406 -0.890625 5.238281 -1.144531 5.8125 -1.5625 C 6.394531 -1.988281 6.6875 -2.296875 6.6875 -2.484375 Z M 8.609375 -3.125 C 8.609375 -2.007812 9.015625 -1.164062 9.828125 -0.59375 L 8.609375 0.3125 L 6.71875 -1.40625 C 5.476562 -0.28125 4.332031 0.28125 3.28125 0.28125 C 2.59375 0.28125 2.003906 0.0625 1.515625 -0.375 C 1.023438 -0.8125 0.78125 -1.363281 0.78125 -2.03125 C 0.78125 -2.695312 0.976562 -3.25 1.375 -3.6875 C 1.769531 -4.125 2.296875 -4.457031 2.953125 -4.6875 C 4.078125 -5.113281 5.320312 -5.378906 6.6875 -5.484375 L 6.6875 -7.703125 C 6.6875 -8.992188 5.9375 -9.640625 4.4375 -9.640625 C 3.570312 -9.640625 2.554688 -9.453125 1.390625 -9.078125 L 1.171875 -9.671875 C 1.484375 -9.921875 2.023438 -10.1875 2.796875 -10.46875 C 3.578125 -10.75 4.316406 -10.890625 5.015625 -10.890625 C 5.722656 -10.890625 6.316406 -10.796875 6.796875 -10.609375 C 7.273438 -10.421875 7.625 -10.207031 7.84375 -9.96875 C 8.070312 -9.738281 8.25 -9.421875 8.375 -9.015625 C 8.5 -8.609375 8.566406 -8.285156 8.578125 -8.046875 C 8.597656 -7.816406 8.609375 -7.503906 8.609375 -7.109375 Z M 8.609375 -3.125 "/></g></g></g><g fill="rgb(95.689392%, 97.24884%, 95.289612%)" fill-opacity="1"><g transform="translate(32.475095, 22.416869)"><g><path d="M 4.109375 -2.0625 C 4.109375 -1.59375 4.203125 -1.238281 4.390625 -1 C 4.578125 -0.769531 4.890625 -0.65625 5.328125 -0.65625 C 5.765625 -0.65625 6.289062 -0.773438 6.90625 -1.015625 L 6.90625 -0.359375 C 5.988281 0.0664062 5.171875 0.28125 4.453125 0.28125 C 3.734375 0.28125 3.164062 0.0820312 2.75 -0.3125 C 2.34375 -0.71875 2.140625 -1.34375 2.140625 -2.1875 L 2.140625 -9.765625 L 0.234375 -10.140625 L 0.234375 -10.609375 L 2.140625 -10.609375 L 2.140625 -11.453125 L 4.109375 -12.890625 L 4.109375 -10.609375 L 6.90625 -10.609375 L 6.90625 -9.765625 L 4.109375 -9.765625 Z M 4.109375 -2.0625 "/></g></g></g><g fill="rgb(95.689392%, 97.24884%, 95.289612%)" fill-opacity="1"><g transform="translate(40.195598, 22.416869)"><g><path d="M 1.765625 0 L 1.765625 -10.609375 L 3.703125 -10.609375 L 3.703125 0 Z M 1.53125 -13.875 C 1.53125 -14.21875 1.640625 -14.503906 1.859375 -14.734375 C 2.085938 -14.972656 2.367188 -15.09375 2.703125 -15.09375 C 3.046875 -15.09375 3.335938 -14.972656 3.578125 -14.734375 C 3.816406 -14.503906 3.9375 -14.222656 3.9375 -13.890625 C 3.9375 -13.566406 3.816406 -13.28125 3.578125 -13.03125 C 3.335938 -12.78125 3.050781 -12.65625 2.71875 -12.65625 C 2.394531 -12.65625 2.113281 -12.773438 1.875 -13.015625 C 1.644531 -13.253906 1.53125 -13.539062 1.53125 -13.875 Z M 1.53125 -13.875 "/></g></g></g><g fill="rgb(95.689392%, 97.24884%, 95.289612%)" fill-opacity="1"><g transform="translate(45.663314, 22.416869)"><g><path d="M 5.1875 0.3125 L 4.828125 0.3125 L 0.234375 -10.609375 L 2.296875 -10.609375 L 5.53125 -2.390625 L 8.609375 -10.609375 L 9.5 -10.609375 Z M 5.1875 0.3125 "/></g></g></g><g fill="rgb(95.689392%, 97.24884%, 95.289612%)" fill-opacity="1"><g transform="translate(55.401948, 22.416869)"><g><path d="M 2.46875 -5.765625 C 2.46875 -4.078125 2.84375 -2.863281 3.59375 -2.125 C 4.351562 -1.382812 5.273438 -1.015625 6.359375 -1.015625 C 7.453125 -1.015625 8.460938 -1.222656 9.390625 -1.640625 L 9.390625 -0.828125 C 8.109375 -0.0859375 6.878906 0.28125 5.703125 0.28125 C 4.179688 0.28125 2.953125 -0.175781 2.015625 -1.09375 C 1.078125 -2.019531 0.609375 -3.359375 0.609375 -5.109375 C 0.609375 -6.867188 1.128906 -8.269531 2.171875 -9.3125 C 3.210938 -10.363281 4.46875 -10.890625 5.9375 -10.890625 C 7.082031 -10.890625 8.035156 -10.4375 8.796875 -9.53125 C 9.566406 -8.632812 9.953125 -7.378906 9.953125 -5.765625 Z M 4.734375 -9.78125 C 4.191406 -9.519531 3.722656 -9.09375 3.328125 -8.5 C 2.941406 -7.914062 2.6875 -7.242188 2.5625 -6.484375 L 8.046875 -6.484375 C 8.003906 -7.140625 7.851562 -7.703125 7.59375 -8.171875 C 7.332031 -8.640625 7.023438 -8.984375 6.671875 -9.203125 C 6.023438 -9.585938 5.378906 -9.78125 4.734375 -9.78125 Z M 4.734375 -9.78125 "/></g></g></g><g fill="rgb(95.689392%, 97.24884%, 95.289612%)" fill-opacity="1"><g transform="translate(66.407776, 22.416869)"><g><path d="M 3.734375 -16.03125 L 3.734375 0 L 1.765625 0 L 1.765625 -16.03125 Z M 3.734375 -16.03125 "/></g></g></g><g fill="rgb(95.689392%, 97.24884%, 95.289612%)" fill-opacity="1"><g transform="translate(71.898953, 22.416869)"><g><path d="M 8.96875 -10.609375 L 9.859375 -10.609375 L 5.84375 0.359375 C 5.320312 1.796875 4.546875 2.953125 3.515625 3.828125 C 2.484375 4.703125 1.351562 5.144531 0.125 5.15625 L 0.359375 3.984375 C 2.460938 3.910156 4.101562 2.539062 5.28125 -0.125 L 0.515625 -10.609375 L 2.609375 -10.609375 L 6.203125 -2.65625 Z M 8.96875 -10.609375 "/></g></g></g><g fill="rgb(95.689392%, 97.24884%, 95.289612%)" fill-opacity="1"><g transform="translate(82.247722, 22.416869)"><g><path d="M 3.796875 -12.84375 C 3.796875 -12.15625 4.066406 -11.515625 4.609375 -10.921875 C 5.148438 -10.335938 5.804688 -9.820312 6.578125 -9.375 C 7.359375 -8.925781 8.128906 -8.472656 8.890625 -8.015625 C 9.660156 -7.554688 10.3125 -6.988281 10.84375 -6.3125 C 11.382812 -5.632812 11.65625 -4.890625 11.65625 -4.078125 C 11.65625 -2.796875 11.179688 -1.75 10.234375 -0.9375 C 9.296875 -0.125 8.019531 0.28125 6.40625 0.28125 C 4.789062 0.28125 3.195312 -0.0234375 1.625 -0.640625 L 1.625 -1.734375 C 3.21875 -0.941406 4.570312 -0.546875 5.6875 -0.546875 C 6.8125 -0.546875 7.6875 -0.816406 8.3125 -1.359375 C 8.9375 -1.910156 9.25 -2.671875 9.25 -3.640625 C 9.25 -4.296875 8.988281 -4.894531 8.46875 -5.4375 C 7.957031 -5.976562 7.332031 -6.445312 6.59375 -6.84375 C 5.851562 -7.238281 5.113281 -7.644531 4.375 -8.0625 C 3.644531 -8.488281 3.019531 -9.023438 2.5 -9.671875 C 1.988281 -10.328125 1.734375 -11.113281 1.734375 -12.03125 C 1.734375 -12.957031 2.144531 -13.816406 2.96875 -14.609375 C 3.789062 -15.410156 5.015625 -15.8125 6.640625 -15.8125 C 7.703125 -15.8125 9.046875 -15.570312 10.671875 -15.09375 L 10.4375 -13.5 C 8.332031 -14.40625 6.523438 -14.859375 5.015625 -14.859375 C 4.203125 -14.460938 3.796875 -13.789062 3.796875 -12.84375 Z M 3.796875 -12.84375 "/></g></g></g><g fill="rgb(95.689392%, 97.24884%, 95.289612%)" fill-opacity="1"><g transform="translate(95.295141, 22.416869)"><g><path d="M 3.75 -9.109375 C 4.40625 -9.734375 4.976562 -10.1875 5.46875 -10.46875 C 5.96875 -10.75 6.476562 -10.890625 7 -10.890625 C 7.53125 -10.890625 8 -10.800781 8.40625 -10.625 C 8.820312 -10.457031 9.25 -10.179688 9.6875 -9.796875 C 10.125 -9.410156 10.476562 -8.816406 10.75 -8.015625 C 11.03125 -7.210938 11.171875 -6.328125 11.171875 -5.359375 C 11.171875 -4.398438 11.015625 -3.503906 10.703125 -2.671875 C 10.390625 -1.847656 9.894531 -1.128906 9.21875 -0.515625 C 8.550781 0.0976562 7.742188 0.40625 6.796875 0.40625 C 5.847656 0.40625 4.832031 0.0351562 3.75 -0.703125 L 3.75 4.96875 L 1.765625 4.96875 L 1.765625 -7.4375 C 1.765625 -8.519531 1.359375 -9.375 0.546875 -10 L 1.765625 -10.890625 Z M 3.75 -7.671875 L 3.75 -1.390625 C 5.894531 -0.367188 7.414062 -0.53125 8.3125 -1.875 C 8.789062 -2.644531 9.03125 -3.660156 9.03125 -4.921875 C 9.03125 -6.179688 8.832031 -7.257812 8.4375 -8.15625 C 8.039062 -9.050781 7.546875 -9.59375 6.953125 -9.78125 C 6.398438 -9.71875 5.859375 -9.519531 5.328125 -9.1875 C 4.804688 -8.863281 4.410156 -8.554688 4.140625 -8.265625 C 3.878906 -7.984375 3.75 -7.785156 3.75 -7.671875 Z M 3.75 -7.671875 "/></g></g></g><g fill="rgb(95.689392%, 97.24884%, 95.289612%)" fill-opacity="1"><g transform="translate(107.028433, 22.416869)"><g><path d="M 6.6875 -2.484375 L 6.6875 -4.90625 C 5.5625 -4.820312 4.640625 -4.566406 3.921875 -4.140625 C 3.203125 -3.722656 2.84375 -3.269531 2.84375 -2.78125 C 2.84375 -2.300781 2.96875 -1.882812 3.21875 -1.53125 C 3.46875 -1.1875 3.785156 -0.941406 4.171875 -0.796875 C 4.691406 -0.890625 5.238281 -1.144531 5.8125 -1.5625 C 6.394531 -1.988281 6.6875 -2.296875 6.6875 -2.484375 Z M 8.609375 -3.125 C 8.609375 -2.007812 9.015625 -1.164062 9.828125 -0.59375 L 8.609375 0.3125 L 6.71875 -1.40625 C 5.476562 -0.28125 4.332031 0.28125 3.28125 0.28125 C 2.59375 0.28125 2.003906 0.0625 1.515625 -0.375 C 1.023438 -0.8125 0.78125 -1.363281 0.78125 -2.03125 C 0.78125 -2.695312 0.976562 -3.25 1.375 -3.6875 C 1.769531 -4.125 2.296875 -4.457031 2.953125 -4.6875 C 4.078125 -5.113281 5.320312 -5.378906 6.6875 -5.484375 L 6.6875 -7.703125 C 6.6875 -8.992188 5.9375 -9.640625 4.4375 -9.640625 C 3.570312 -9.640625 2.554688 -9.453125 1.390625 -9.078125 L 1.171875 -9.671875 C 1.484375 -9.921875 2.023438 -10.1875 2.796875 -10.46875 C 3.578125 -10.75 4.316406 -10.890625 5.015625 -10.890625 C 5.722656 -10.890625 6.316406 -10.796875 6.796875 -10.609375 C 7.273438 -10.421875 7.625 -10.207031 7.84375 -9.96875 C 8.070312 -9.738281 8.25 -9.421875 8.375 -9.015625 C 8.5 -8.609375 8.566406 -8.285156 8.578125 -8.046875 C 8.597656 -7.816406 8.609375 -7.503906 8.609375 -7.109375 Z M 8.609375 -3.125 "/></g></g></g><g fill="rgb(95.689392%, 97.24884%, 95.289612%)" fill-opacity="1"><g transform="translate(117.447597, 22.416869)"><g><path d="M 3.46875 0 L 1.5 0 L 1.5 -10.609375 L 2.859375 -10.609375 L 3.40625 -8.640625 C 3.71875 -9.179688 4.210938 -9.691406 4.890625 -10.171875 C 5.578125 -10.660156 6.28125 -10.960938 7 -11.078125 L 7.234375 -9.453125 C 6.648438 -9.453125 5.992188 -9.269531 5.265625 -8.90625 C 4.535156 -8.550781 3.9375 -8.15625 3.46875 -7.71875 Z M 3.46875 0 "/></g></g></g><g fill="rgb(95.689392%, 97.24884%, 95.289612%)" fill-opacity="1"><g transform="translate(124.909971, 22.416869)"><g><path d="M 3.734375 0 L 1.765625 0 L 1.765625 -16.03125 L 3.734375 -16.03125 L 3.734375 -6.109375 L 9.15625 -10.609375 L 10.703125 -10.609375 L 5.1875 -6.4375 L 11.046875 0 L 8.703125 0.3125 L 3.734375 -5.890625 Z M 3.734375 0 "/></g></g></g></svg>